<?xml version="1.0" encoding="UTF-8"?>
<svg id="Ebene_2" data-name="Ebene 2" xmlns="http://www.w3.org/2000/svg" viewBox="0 0 286.28 134.75">
  <g id="Logo">
    <g>
      <path id="LWINGT" fill="#553adf" d="m97.17,47.78s-2.4-13.04-16.82-17.85C65.94,25.13,2.79,4.19.38.42c-2.4-3.78,6.52,23.68,24.71,28.49,18.19,4.8,70.7,20.25,72.07,18.88Z"/>
      <path id="LWINGM" fill="#553adf" d="m87.9,66.65l4.46-11.33S30.93,39.2,17.2,31.99c0,0,5.15,17.85,23.68,22.31,18.53,4.46,47.02,12.36,47.02,12.36Z"/>
      <path id="LWINGB" fill="#553adf" d="m85.5,72.49s-44.96-10.98-53.88-15.1c0,0,5.83,17.16,28.83,18.88l22.31,3.09,2.75-6.86Z"/>
      <path id="RWINGT" fill="#553adf" d="m261.19,28.84c18.19-4.8,27.11-32.26,24.71-28.49-2.4,3.78-65.55,24.71-79.97,29.52-14.41,4.8-16.82,17.85-16.82,17.85,1.37,1.37,53.88-14.07,72.07-18.88Z"/>
      <path id="RWINGM" fill="#553adf" d="m269.08,31.93c-13.73,7.21-75.16,23.34-75.16,23.34l4.46,11.33s28.49-7.89,47.02-12.36c18.53-4.46,23.68-22.31,23.68-22.31Z"/>
      <path id="RWINGB" fill="#553adf" d="m203.53,79.29l22.31-3.09c22.99-1.72,28.83-18.88,28.83-18.88-8.92,4.12-53.88,15.1-53.88,15.1l2.75,6.86Z"/>
      <path id="A" fill="#553adf" d="m169.35,13.86c-.4-.97-1.35-1.61-2.4-1.61h-46.56c-1.05,0-2,.63-2.4,1.61l-48.22,117.32c-.7,1.71.55,3.58,2.4,3.58h31.95c1.05,0,2-.63,2.4-1.61l34.75-84.54c.88-2.14,3.91-2.14,4.8,0l15.55,37.84h-5.29c-15.18,0-27.48,12.3-27.48,27.48h0s44.07,0,44.07,0l7.9,19.22c.4.97,1.35,1.61,2.4,1.61h31.95c1.84,0,3.1-1.87,2.4-3.58L169.35,13.86Z"/>
    </g>
  </g>
</svg>